<svg width="56" height="56" viewBox="0 0 56 56" fill="none" xmlns="http://www.w3.org/2000/svg">
<path d="M23.072 23.492C21.476 23.492 20.216 24.892 20.216 26.6C20.216 28.308 21.504 29.708 23.072 29.708C24.668 29.708 25.928 28.308 25.928 26.6C25.956 24.892 24.668 23.492 23.072 23.492ZM33.292 23.492C31.696 23.492 30.436 24.892 30.436 26.6C30.436 28.308 31.724 29.708 33.292 29.708C34.888 29.708 36.148 28.308 36.148 26.6C36.148 24.892 34.888 23.492 33.292 23.492Z" fill="white"/>
<path d="M46.9 0H9.38001C6.21601 0 3.64001 2.576 3.64001 5.768V43.624C3.64001 46.816 6.21601 49.392 9.38001 49.392H41.132L39.648 44.212L43.232 47.544L46.62 50.68L52.64 56V5.768C52.64 2.576 50.064 0 46.9 0ZM36.092 36.568C36.092 36.568 35.084 35.364 34.244 34.3C37.912 33.264 39.312 30.968 39.312 30.968C38.164 31.724 37.072 32.256 36.092 32.62C34.692 33.208 33.348 33.6 32.032 33.824C29.344 34.328 26.88 34.188 24.78 33.796C23.184 33.488 21.812 33.04 20.664 32.592C20.02 32.34 19.32 32.032 18.62 31.64C18.536 31.584 18.452 31.556 18.368 31.5C18.312 31.472 18.284 31.444 18.256 31.416C17.752 31.136 17.472 30.94 17.472 30.94C17.472 30.94 18.816 33.18 22.372 34.244C21.532 35.308 20.496 36.568 20.496 36.568C14.308 36.372 11.956 32.312 11.956 32.312C11.956 23.296 15.988 15.988 15.988 15.988C20.02 12.964 23.856 13.048 23.856 13.048L24.136 13.384C19.096 14.84 16.772 17.052 16.772 17.052C16.772 17.052 17.388 16.716 18.424 16.24C21.42 14.924 23.8 14.56 24.78 14.476C24.948 14.448 25.088 14.42 25.256 14.42C26.964 14.196 28.896 14.14 30.912 14.364C33.572 14.672 36.428 15.456 39.34 17.052C39.34 17.052 37.128 14.952 32.368 13.496L32.76 13.048C32.76 13.048 36.596 12.964 40.628 15.988C40.628 15.988 44.66 23.296 44.66 32.312C44.66 32.312 42.28 36.372 36.092 36.568Z" fill="white"/>
</svg>
