<svg width="238" height="56" viewBox="0 0 238 56" fill="none" xmlns="http://www.w3.org/2000/svg">
<path d="M23.072 23.4919C21.476 23.4919 20.216 24.8919 20.216 26.5999C20.216 28.3079 21.504 29.7079 23.072 29.7079C24.668 29.7079 25.928 28.3079 25.928 26.5999C25.956 24.8919 24.668 23.4919 23.072 23.4919ZM33.292 23.4919C31.696 23.4919 30.436 24.8919 30.436 26.5999C30.436 28.3079 31.724 29.7079 33.292 29.7079C34.888 29.7079 36.148 28.3079 36.148 26.5999C36.148 24.8919 34.888 23.4919 33.292 23.4919Z" fill="white"/>
<path d="M46.9 0H9.38C6.216 0 3.64 2.576 3.64 5.768V43.624C3.64 46.816 6.216 49.392 9.38 49.392H41.132L39.648 44.212L43.232 47.544L46.62 50.68L52.64 56V5.768C52.64 2.576 50.064 0 46.9 0ZM36.092 36.568C36.092 36.568 35.084 35.364 34.244 34.3C37.912 33.264 39.312 30.968 39.312 30.968C38.164 31.724 37.072 32.256 36.092 32.62C34.692 33.208 33.348 33.6 32.032 33.824C29.344 34.328 26.88 34.188 24.78 33.796C23.184 33.488 21.812 33.04 20.664 32.592C20.02 32.34 19.32 32.032 18.62 31.64C18.536 31.584 18.452 31.556 18.368 31.5C18.312 31.472 18.284 31.444 18.256 31.416C17.752 31.136 17.472 30.94 17.472 30.94C17.472 30.94 18.816 33.18 22.372 34.244C21.532 35.308 20.496 36.568 20.496 36.568C14.308 36.372 11.956 32.312 11.956 32.312C11.956 23.296 15.988 15.988 15.988 15.988C20.02 12.964 23.856 13.048 23.856 13.048L24.136 13.384C19.096 14.84 16.772 17.052 16.772 17.052C16.772 17.052 17.388 16.716 18.424 16.24C21.42 14.924 23.8 14.56 24.78 14.476C24.948 14.448 25.088 14.42 25.256 14.42C26.964 14.196 28.896 14.14 30.912 14.364C33.572 14.672 36.428 15.456 39.34 17.052C39.34 17.052 37.128 14.952 32.368 13.496L32.76 13.048C32.76 13.048 36.596 12.964 40.628 15.988C40.628 15.988 44.66 23.296 44.66 32.312C44.66 32.312 42.28 36.372 36.092 36.568Z" fill="white"/>
<g filter="url(#filter0_d)">
<path d="M78.538 23.228V30.256C78.538 30.6947 78.4633 31.0913 78.314 31.446C78.174 31.8007 77.9687 32.104 77.698 32.356C77.4367 32.608 77.1147 32.804 76.732 32.944C76.3493 33.084 75.92 33.154 75.444 33.154C74.5387 33.154 73.834 32.9207 73.33 32.454C72.826 31.978 72.504 31.348 72.364 30.564L74.072 30.214C74.156 30.634 74.3053 30.9607 74.52 31.194C74.744 31.418 75.0473 31.53 75.43 31.53C75.794 31.53 76.0927 31.418 76.326 31.194C76.5687 30.9607 76.69 30.606 76.69 30.13V24.74H73.61V23.228H78.538ZM86.2929 33.168C85.6489 33.168 85.0656 33.0607 84.5429 32.846C84.0202 32.6313 83.5722 32.3093 83.1989 31.88C82.8349 31.4507 82.5502 30.9233 82.3449 30.298C82.1396 29.6727 82.0369 28.9447 82.0369 28.114C82.0369 27.2927 82.1396 26.5693 82.3449 25.944C82.5502 25.3093 82.8349 24.7773 83.1989 24.348C83.5722 23.9187 84.0202 23.5967 84.5429 23.382C85.0656 23.1673 85.6489 23.06 86.2929 23.06C86.9369 23.06 87.5202 23.1673 88.0429 23.382C88.5656 23.5967 89.0136 23.9187 89.3869 24.348C89.7602 24.7773 90.0449 25.3093 90.2409 25.944C90.4462 26.5693 90.5489 27.2927 90.5489 28.114C90.5489 28.9447 90.4462 29.6727 90.2409 30.298C90.0449 30.9233 89.7602 31.4507 89.3869 31.88C89.0136 32.3093 88.5656 32.6313 88.0429 32.846C87.5202 33.0607 86.9369 33.168 86.2929 33.168ZM86.2929 31.53C86.9929 31.53 87.5482 31.2967 87.9589 30.83C88.3789 30.3633 88.5889 29.71 88.5889 28.87V27.358C88.5889 26.518 88.3789 25.8647 87.9589 25.398C87.5482 24.9313 86.9929 24.698 86.2929 24.698C85.5929 24.698 85.0329 24.9313 84.6129 25.398C84.2022 25.8647 83.9969 26.518 83.9969 27.358V28.87C83.9969 29.71 84.2022 30.3633 84.6129 30.83C85.0329 31.2967 85.5929 31.53 86.2929 31.53ZM93.6977 33V31.516H94.9857V24.712H93.6977V23.228H98.1357V24.712H96.8337V31.516H98.1357V33H93.6977ZM104.504 27.988L103.496 25.958H103.454V33H101.704V23.228H103.734L106.674 28.24L107.682 30.27H107.724V23.228H109.474V33H107.444L104.504 27.988ZM122.271 33.168C121.627 33.168 121.043 33.0607 120.521 32.846C119.998 32.6313 119.55 32.3093 119.177 31.88C118.813 31.4507 118.528 30.9233 118.323 30.298C118.117 29.6727 118.015 28.9447 118.015 28.114C118.015 27.2927 118.117 26.5693 118.323 25.944C118.528 25.3093 118.813 24.7773 119.177 24.348C119.55 23.9187 119.998 23.5967 120.521 23.382C121.043 23.1673 121.627 23.06 122.271 23.06C122.915 23.06 123.498 23.1673 124.021 23.382C124.543 23.5967 124.991 23.9187 125.365 24.348C125.738 24.7773 126.023 25.3093 126.219 25.944C126.424 26.5693 126.527 27.2927 126.527 28.114C126.527 28.9447 126.424 29.6727 126.219 30.298C126.023 30.9233 125.738 31.4507 125.365 31.88C124.991 32.3093 124.543 32.6313 124.021 32.846C123.498 33.0607 122.915 33.168 122.271 33.168ZM122.271 31.53C122.971 31.53 123.526 31.2967 123.937 30.83C124.357 30.3633 124.567 29.71 124.567 28.87V27.358C124.567 26.518 124.357 25.8647 123.937 25.398C123.526 24.9313 122.971 24.698 122.271 24.698C121.571 24.698 121.011 24.9313 120.591 25.398C120.18 25.8647 119.975 26.518 119.975 27.358V28.87C119.975 29.71 120.18 30.3633 120.591 30.83C121.011 31.2967 121.571 31.53 122.271 31.53ZM131.832 23.228V29.234C131.832 29.9993 131.976 30.5733 132.266 30.956C132.564 31.3387 133.064 31.53 133.764 31.53C134.464 31.53 134.958 31.3387 135.248 30.956C135.546 30.5733 135.696 29.9993 135.696 29.234V23.228H137.516V28.996C137.516 29.7147 137.446 30.3353 137.306 30.858C137.175 31.3807 136.96 31.8147 136.662 32.16C136.363 32.5053 135.971 32.762 135.486 32.93C135.01 33.0887 134.431 33.168 133.75 33.168C133.059 33.168 132.476 33.0887 132 32.93C131.533 32.762 131.15 32.5053 130.852 32.16C130.553 31.8147 130.338 31.3807 130.208 30.858C130.077 30.3353 130.012 29.7147 130.012 28.996V23.228H131.832ZM143.276 33H141.428V23.228H145.838C146.286 23.228 146.687 23.298 147.042 23.438C147.396 23.578 147.695 23.7833 147.938 24.054C148.19 24.3153 148.381 24.6327 148.512 25.006C148.652 25.3793 148.722 25.7947 148.722 26.252C148.722 26.924 148.568 27.5027 148.26 27.988C147.961 28.4733 147.508 28.8187 146.902 29.024L148.904 33H146.846L145.026 29.234H143.276V33ZM145.656 27.68C146.01 27.68 146.29 27.5867 146.496 27.4C146.701 27.204 146.804 26.9287 146.804 26.574V25.93C146.804 25.5753 146.701 25.3047 146.496 25.118C146.29 24.9313 146.01 24.838 145.656 24.838H143.276V27.68H145.656ZM157.393 23.228H160.949C161.584 23.228 162.158 23.3307 162.671 23.536C163.194 23.7413 163.637 24.0493 164.001 24.46C164.374 24.8613 164.659 25.37 164.855 25.986C165.06 26.5927 165.163 27.302 165.163 28.114C165.163 28.926 165.06 29.64 164.855 30.256C164.659 30.8627 164.374 31.3713 164.001 31.782C163.637 32.1833 163.194 32.4867 162.671 32.692C162.158 32.8973 161.584 33 160.949 33H157.393V23.228ZM160.949 31.362C161.64 31.362 162.186 31.1613 162.587 30.76C162.998 30.3493 163.203 29.724 163.203 28.884V27.344C163.203 26.504 162.998 25.8833 162.587 25.482C162.186 25.0713 161.64 24.866 160.949 24.866H159.241V31.362H160.949ZM168.319 33V31.516H169.607V24.712H168.319V23.228H172.757V24.712H171.455V31.516H172.757V33H168.319ZM179.363 33.168C178.523 33.168 177.809 33.0187 177.221 32.72C176.643 32.4213 176.143 32.0293 175.723 31.544L176.969 30.34C177.305 30.732 177.679 31.0307 178.089 31.236C178.509 31.4413 178.971 31.544 179.475 31.544C180.045 31.544 180.474 31.4227 180.763 31.18C181.053 30.928 181.197 30.592 181.197 30.172C181.197 29.8453 181.104 29.5793 180.917 29.374C180.731 29.1687 180.381 29.0193 179.867 28.926L178.943 28.786C176.993 28.478 176.017 27.5307 176.017 25.944C176.017 25.5053 176.097 25.1087 176.255 24.754C176.423 24.3993 176.661 24.096 176.969 23.844C177.277 23.592 177.646 23.4007 178.075 23.27C178.514 23.13 179.009 23.06 179.559 23.06C180.297 23.06 180.941 23.1813 181.491 23.424C182.042 23.6667 182.513 24.026 182.905 24.502L181.645 25.692C181.403 25.3933 181.109 25.1507 180.763 24.964C180.418 24.7773 179.984 24.684 179.461 24.684C178.929 24.684 178.528 24.7867 178.257 24.992C177.996 25.188 177.865 25.468 177.865 25.832C177.865 26.2053 177.973 26.4807 178.187 26.658C178.402 26.8353 178.747 26.966 179.223 27.05L180.133 27.218C181.123 27.3953 181.851 27.7127 182.317 28.17C182.793 28.618 183.031 29.248 183.031 30.06C183.031 30.5267 182.947 30.9513 182.779 31.334C182.621 31.7073 182.383 32.034 182.065 32.314C181.757 32.5847 181.375 32.7947 180.917 32.944C180.469 33.0933 179.951 33.168 179.363 33.168ZM190.358 33.168C189.714 33.168 189.131 33.0653 188.608 32.86C188.095 32.6453 187.651 32.328 187.278 31.908C186.914 31.488 186.634 30.97 186.438 30.354C186.242 29.7287 186.144 29.0053 186.144 28.184C186.144 27.3627 186.242 26.6347 186.438 26C186.634 25.356 186.914 24.8193 187.278 24.39C187.651 23.9513 188.095 23.62 188.608 23.396C189.131 23.172 189.714 23.06 190.358 23.06C191.235 23.06 191.963 23.2467 192.542 23.62C193.121 23.9933 193.583 24.558 193.928 25.314L192.346 26.154C192.206 25.7153 191.977 25.3653 191.66 25.104C191.343 24.8333 190.909 24.698 190.358 24.698C189.667 24.698 189.117 24.9313 188.706 25.398C188.305 25.8647 188.104 26.518 188.104 27.358V28.898C188.104 29.7473 188.305 30.4007 188.706 30.858C189.117 31.306 189.667 31.53 190.358 31.53C190.909 31.53 191.357 31.3807 191.702 31.082C192.057 30.7833 192.313 30.4147 192.472 29.976L193.97 30.858C193.615 31.586 193.144 32.1553 192.556 32.566C191.968 32.9673 191.235 33.168 190.358 33.168ZM200.885 33.168C200.241 33.168 199.657 33.0607 199.135 32.846C198.612 32.6313 198.164 32.3093 197.791 31.88C197.427 31.4507 197.142 30.9233 196.937 30.298C196.731 29.6727 196.629 28.9447 196.629 28.114C196.629 27.2927 196.731 26.5693 196.937 25.944C197.142 25.3093 197.427 24.7773 197.791 24.348C198.164 23.9187 198.612 23.5967 199.135 23.382C199.657 23.1673 200.241 23.06 200.885 23.06C201.529 23.06 202.112 23.1673 202.635 23.382C203.157 23.5967 203.605 23.9187 203.979 24.348C204.352 24.7773 204.637 25.3093 204.833 25.944C205.038 26.5693 205.141 27.2927 205.141 28.114C205.141 28.9447 205.038 29.6727 204.833 30.298C204.637 30.9233 204.352 31.4507 203.979 31.88C203.605 32.3093 203.157 32.6313 202.635 32.846C202.112 33.0607 201.529 33.168 200.885 33.168ZM200.885 31.53C201.585 31.53 202.14 31.2967 202.551 30.83C202.971 30.3633 203.181 29.71 203.181 28.87V27.358C203.181 26.518 202.971 25.8647 202.551 25.398C202.14 24.9313 201.585 24.698 200.885 24.698C200.185 24.698 199.625 24.9313 199.205 25.398C198.794 25.8647 198.589 26.518 198.589 27.358V28.87C198.589 29.71 198.794 30.3633 199.205 30.83C199.625 31.2967 200.185 31.53 200.885 31.53ZM210.543 33H208.695V23.228H213.105C213.553 23.228 213.955 23.298 214.309 23.438C214.664 23.578 214.963 23.7833 215.205 24.054C215.457 24.3153 215.649 24.6327 215.779 25.006C215.919 25.3793 215.989 25.7947 215.989 26.252C215.989 26.924 215.835 27.5027 215.527 27.988C215.229 28.4733 214.776 28.8187 214.169 29.024L216.171 33H214.113L212.293 29.234H210.543V33ZM212.923 27.68C213.278 27.68 213.558 27.5867 213.763 27.4C213.969 27.204 214.071 26.9287 214.071 26.574V25.93C214.071 25.5753 213.969 25.3047 213.763 25.118C213.558 24.9313 213.278 24.838 212.923 24.838H210.543V27.68H212.923ZM219.672 23.228H223.228C223.863 23.228 224.437 23.3307 224.95 23.536C225.473 23.7413 225.916 24.0493 226.28 24.46C226.654 24.8613 226.938 25.37 227.134 25.986C227.34 26.5927 227.442 27.302 227.442 28.114C227.442 28.926 227.34 29.64 227.134 30.256C226.938 30.8627 226.654 31.3713 226.28 31.782C225.916 32.1833 225.473 32.4867 224.95 32.692C224.437 32.8973 223.863 33 223.228 33H219.672V23.228ZM223.228 31.362C223.919 31.362 224.465 31.1613 224.866 30.76C225.277 30.3493 225.482 29.724 225.482 28.884V27.344C225.482 26.504 225.277 25.8833 224.866 25.482C224.465 25.0713 223.919 24.866 223.228 24.866H221.52V31.362H223.228ZM231.649 30.06L231.075 25.986V23.228H232.979V25.986L232.433 30.06H231.649ZM232.027 33.168C231.625 33.168 231.336 33.0747 231.159 32.888C230.981 32.7013 230.893 32.4633 230.893 32.174V31.894C230.893 31.6047 230.981 31.3667 231.159 31.18C231.336 30.9933 231.625 30.9 232.027 30.9C232.419 30.9 232.703 30.9933 232.881 31.18C233.058 31.3667 233.147 31.6047 233.147 31.894V32.174C233.147 32.4633 233.058 32.7013 232.881 32.888C232.703 33.0747 232.419 33.168 232.027 33.168Z" fill="white"/>
</g>
<defs>
<filter id="filter0_d" x="68.364" y="21.0601" width="168.783" height="18.1079" filterUnits="userSpaceOnUse" color-interpolation-filters="sRGB">
<feFlood flood-opacity="0" result="BackgroundImageFix"/>
<feColorMatrix in="SourceAlpha" type="matrix" values="0 0 0 0 0 0 0 0 0 0 0 0 0 0 0 0 0 0 127 0" result="hardAlpha"/>
<feOffset dy="2"/>
<feGaussianBlur stdDeviation="2"/>
<feComposite in2="hardAlpha" operator="out"/>
<feColorMatrix type="matrix" values="0 0 0 0 0 0 0 0 0 0 0 0 0 0 0 0 0 0 0.15 0"/>
<feBlend mode="normal" in2="BackgroundImageFix" result="effect1_dropShadow"/>
<feBlend mode="normal" in="SourceGraphic" in2="effect1_dropShadow" result="shape"/>
</filter>
</defs>
</svg>
